<?xml version="1.0" encoding="UTF-8"?>
<svg width="375px" height="400px" viewBox="0 0 375 400" version="1.1" xmlns="http://www.w3.org/2000/svg" xmlns:xlink="http://www.w3.org/1999/xlink">
    <!-- Generator: Sketch 59 (86127) - https://sketch.com -->
    <title>编组</title>
    <desc>Created with Sketch.</desc>
    <defs>
        <filter x="-5.6%" y="-5.0%" width="111.2%" height="110.0%" filterUnits="objectBoundingBox" id="filter-1">
            <feOffset dx="0" dy="0" in="SourceAlpha" result="shadowOffsetOuter1"></feOffset>
            <feGaussianBlur stdDeviation="5" in="shadowOffsetOuter1" result="shadowBlurOuter1"></feGaussianBlur>
            <feColorMatrix values="0 0 0 0 0   0 0 0 0 0   0 0 0 0 0  0 0 0 0.0965089598 0" type="matrix" in="shadowBlurOuter1" result="shadowMatrixOuter1"></feColorMatrix>
            <feMerge>
                <feMergeNode in="shadowMatrixOuter1"></feMergeNode>
                <feMergeNode in="SourceGraphic"></feMergeNode>
            </feMerge>
        </filter>
        <path id="CN-34" title="安徽省" class="land"  d="M238.079838,10.0024132 C240.142542,9.88758603 240.256485,13.9044619 242.547764,14.8223875 C244.839043,15.7403132 246.787114,15.0520418 247.588855,16.5441034 C248.390595,18.0354731 246.672481,19.757189 249.192336,19.1830531 C251.712881,18.609609 260.304834,16.1996218 261.794372,16.1996218 C263.283221,16.1996218 266.835463,17.0027203 267.064039,21.1337316 C267.293305,25.2654346 269.126052,34.6750371 269.584584,34.7898643 C270.043116,34.9046915 270.844857,35.3640002 270.730224,36.9701971 C270.616281,38.5770858 271.532655,60.7255871 271.418022,63.5941912 C271.36414,64.9425544 271.107795,67.1278157 270.851223,69.0653151 L270.575609,69.068043 L270.575609,69.068043 C269.205283,69.068043 268.138631,70.141106 266.158888,70.9072826 C264.178457,71.6734593 251.993569,73.665103 251.993569,73.665103 C251.993569,73.665103 252.450115,82.8592228 251.993569,84.2384794 C251.536334,85.6170432 250.045502,86.230123 247.744868,85.3108496 C245.443546,84.3915761 243.768167,84.0853826 243.615985,84.5446729 C243.463115,85.004656 244.225402,88.528653 243.615985,89.4479264 C243.006569,90.3678926 240.265227,90.5209894 240.112357,94.1987759 C239.960175,97.8758697 239.655811,100.327496 237.979743,102.013639 C236.305053,103.699089 236,104.465266 236,104.465266 C236,104.465266 240.569591,112.433226 241.179008,113.812483 C241.788424,115.191739 242.702205,115.65103 241.33119,117.030286 C239.960175,118.409543 237.523197,119.941896 237.523197,119.941896 L245.748599,119.941896 C245.748599,119.941896 248.337758,118.256446 250.622554,118.868833 C252.90735,119.481913 253.516766,121.474249 253.516766,123.465893 C253.516766,125.458229 254.734911,125.458229 255.496509,125.611326 C256.258108,125.765116 256.867524,127.450566 258.390721,127.143679 C259.913918,126.837486 259.609554,125.765116 261.89435,125.458229 C264.178457,125.151343 265.854524,126.990583 266.615434,128.982919 C267.175609,130.4465 270.86128,137.619921 272.776332,141.320942 C267.559645,144.919015 261.496273,149.699894 258.693225,151.274856 C253.797135,154.024768 234.826949,164.261818 229.625156,168.387722 C224.424055,172.512935 215.856071,176.791497 210.348575,179.388751 C204.841079,181.986005 192.907595,189.778458 189.236392,191.612423 C186.153038,193.151856 180.804363,195.984465 179.168979,196.852951 C176.629157,194.669092 173.476544,191.656738 173.476544,191.656738 L173.476544,191.656738 L173.476544,187.975267 C172.561104,188.281825 170.272157,187.361457 169.509865,187.054206 C168.746193,186.747648 169.05111,180.917496 169.05111,180.917496 C169.96724,180.917496 172.561104,176.008406 172.256187,173.70714 C171.95127,171.405873 168.899341,166.036253 166.152329,165.729694 C163.405317,165.422443 162.947942,164.809327 162.489876,163.12187 C162.032501,161.43372 163.710234,158.518644 162.489876,156.371351 C161.268829,154.223364 160.353388,152.228656 160.353388,152.228656 C159.285489,154.070085 156.539167,154.837174 154.24953,151.308288 C152.815829,149.097941 154.615021,145.623939 156.159683,143.336457 C157.764887,142.291541 159.296288,141.04652 159.069373,140.213659 C158.611531,138.53068 154.640119,136.081956 152.806681,134.55185 C150.973933,133.021743 150.668015,132.103817 149.140496,132.25669 C147.612976,132.409562 142.114734,132.409562 142.573266,130.420838 C143.031108,128.431423 145.933533,128.125678 145.627615,126.748444 C145.322387,125.37121 144.100786,120.169401 145.169083,119.250783 C146.238761,118.332858 147.456219,116.649879 150.818557,117.567804 C154.181586,118.486422 158.458917,119.250783 160.596892,118.027113 C162.735558,116.802751 165.026837,115.426208 167.624035,115.273336 C170.220542,115.119772 172.09196,117.185278 174.039341,113.398748 C175.986721,109.611526 178.049425,109.152218 179.42364,107.431194 C180.798546,105.709478 185.838946,99.5129607 186.869952,95.8405664 C187.900959,92.1688638 190.880037,85.1685567 190.192929,84.709248 C189.505821,84.2499394 187.443118,84.709248 186.75601,84.2499394 C186.068212,83.7913224 184.006199,76.4472255 183.66299,75.8730896 C183.319091,75.2989538 183.548357,74.3810281 181.600286,74.3810281 C179.652906,74.3810281 178.553534,73.807584 178.553534,73.807584 L178.553534,70.4796712 C178.553534,70.4796712 175.413556,69.3313995 175.528189,67.3814127 C175.642822,65.4300425 175.872088,62.6755739 177.018418,60.7255871 C178.164058,58.7742169 176.674519,54.9876872 175.986721,53.3807985 C175.299613,51.7739098 173.352233,47.6428986 173.695442,46.150837 C174.039341,44.6594673 175.872088,44.2001586 179.42364,45.0032571 C182.975192,45.8070473 190.765404,46.150837 192.598151,46.6101457 C194.430898,47.0687627 207.491467,51.0856385 208.523164,52.0035642 C209.55417,52.9214898 218.83323,40.0691473 220.895934,37.0850243 C222.957947,34.101593 231.893108,19.6423618 232.810172,17.5768562 C233.726546,15.5106588 236.017825,10.1172404 238.079838,10.0024132 Z" id="形状结合" stroke="#FFFFFF" fill="#E4DFFF"></path>
        <path id="CN-11" title="北京市" class="land"  d="M279.281122,325.87973 L290.129394,325.87973 C290.129394,325.87973 292.870372,329 293.212478,329 C293.555272,329 301.092619,328.306839 302.462419,327.440213 C303.832909,326.573588 305.545504,325.87973 305.545504,325.87973 L299.949971,320.794923 C299.949971,320.794923 300.520606,318.513412 303.375849,318.960658 C306.230404,319.407207 307.715847,321.025512 308.857806,321.256798 C309.999077,321.488084 314.339074,320.332351 314.339074,319.52285 C314.339074,318.714046 315.252504,307.157412 315.252504,307.157412 C315.252504,307.157412 317.54606,309.815111 318.511804,310.393325 C319.477548,310.970844 322.903427,310.624611 323.816857,310.393325 C324.730287,310.162039 327.014895,309.237592 328.72749,310.046397 C330.440085,310.855201 331.124985,312.704095 331.582045,312.589148 C332.039104,312.473506 351.223887,311.895291 351.223887,311.895291 L366.754262,311.433415 C366.754262,311.433415 365.269508,308.775021 365.155243,307.157412 C365.041667,305.539107 364.927402,302.649427 365.840832,301.840622 C366.754262,301.031818 367.324898,299.529156 366.754262,298.027191 C366.182938,296.524529 364.584608,294.213063 364.813137,293.866134 C365.041667,293.519205 367.667692,292.132883 369.609505,290.861507 C371.55063,289.590131 374.861555,289.474488 374.97582,288.203112 C375.090085,286.931736 374.861555,285.314128 372.920431,283.811466 C370.979306,282.309501 369.038181,279.304177 368.238327,278.494676 C367.439162,277.685872 368.809651,277.868393 368.809651,276.621399 C368.809651,275.374406 368.809651,272.947994 368.124063,271.676618 C367.439162,270.405242 366.182938,269.249509 365.498038,269.364455 C364.813137,269.480795 363.899707,270.173956 363.328383,269.94267 C362.757059,269.712081 361.729364,268.093776 362.072159,267.169329 C362.414265,266.244185 363.671178,264.867616 363.442648,262.03088 C363.214118,259.19484 362.072159,259.19484 362.072159,259.19484 C362.072159,259.19484 358.87481,261.516059 357.73285,262.03088 C356.59089,262.546397 354.649077,260.696806 354.649077,259.19484 C354.649077,257.692179 354.306971,255.26507 354.306971,255.26507 C354.306971,255.26507 351.680946,255.603639 350.538987,254.452086 C349.396339,253.300532 346.541784,249.024529 346.085413,248.6776 C345.628354,248.330671 337.291842,248.6776 337.291842,248.6776 C337.291842,248.6776 335.122188,249.024529 334.893658,250.179566 C334.665817,251.335995 332.952534,251.104709 332.610428,251.104709 C332.267633,251.104709 330.55435,250.526494 328.841755,250.410852 C327.128471,250.295209 323.816857,250.410852 323.816857,250.410852 C323.816857,250.410852 321.190832,243.823382 321.076567,241.511916 C320.962302,239.20045 320.048872,237.12027 320.048872,237.12027 C320.048872,237.12027 315.708875,234 313.882015,234 C312.054467,234 273,271.676618 273,271.676618 L279.281122,325.87973 Z" id="path-2"></path>
        <path id="CN-50" title="重庆市" class="land"  d="M157.911983,141.029577 C157.911983,141.029577 151.960584,147.779403 154.24953,151.308288 C156.539167,154.837174 159.285489,154.070085 160.353388,152.228656 C160.353388,152.228656 161.268829,154.223364 162.489876,156.371351 C163.710234,158.518644 162.032501,161.43372 162.489876,163.12187 C162.947942,164.809327 163.405317,165.422443 166.152329,165.729694 C168.899341,166.036253 171.95127,171.405873 172.256187,173.70714 C172.561104,176.008406 169.96724,180.917496 169.05111,180.917496 C169.05111,180.917496 168.746193,186.747648 169.509865,187.054206 C170.272157,187.361457 172.561104,188.281825 173.476544,187.975267 L173.476544,191.656738 C173.476544,191.656738 180.541373,198.407257 182.044573,199.021067 C183.547772,199.634877 198.044434,239.982633 195.755487,244.81543 C193.466541,249.648228 132.352079,294.292652 127.087777,294.982755 C121.823476,295.672857 87.4892763,275.421992 87.4892763,275.421992 C87.4892763,275.421992 52.6977011,209.146499 61.3961123,201.092068 C70.0938336,193.037636 97.2555866,164.962606 97.4466771,161.740972 C97.6370778,158.518644 97.4466771,157.483144 96.0724813,156.908174 C94.6996652,156.332511 93.6697082,155.872674 93.6697082,155.872674 C93.6697082,155.872674 99.2775585,155.826205 100.422032,154.986985 C101.566505,154.146378 104.313517,154.330867 106.830807,154.986985 C109.348786,155.642409 111.752249,155.181878 111.752249,154.491776 C111.752249,153.801673 111.981281,148.968876 115.071152,148.623478 C118.161023,148.278773 119.649046,150.004376 121.136378,149.889243 C122.62509,149.774111 126.286853,146.207079 130.292855,145.171578 C134.298166,144.136078 135.786189,145.401844 137.61707,144.366343 C139.447951,143.330843 143.339437,143.100578 145.284834,143.675547 C147.230922,144.251211 149.633695,144.481476 150.09176,143.21571 C150.549136,141.949945 150.892685,140.799311 152.037158,141.029577 C153.181631,141.259842 157.911983,141.029577 157.911983,141.029577" id="path-3"></path>
        <path id="CN-35" title="福建省" class="land"  d="M251.993569,73.665103 C251.993569,73.665103 252.450115,82.8592228 251.993569,84.2384794 C251.536334,85.6170432 250.045502,86.230123 247.744868,85.3108496 C245.443546,84.3915761 243.768167,84.0853826 243.615985,84.5446729 C243.463115,85.004656 244.225402,88.528653 243.615985,89.4479264 C243.006569,90.3678926 240.265227,90.5209894 240.112357,94.1987759 C239.960175,97.8758697 239.655811,100.327496 237.979743,102.013639 C236.305053,103.699089 236,104.465266 236,104.465266 C236,104.465266 240.569591,112.433226 241.179008,113.812483 C241.788424,115.191739 242.702205,115.65103 241.33119,117.030286 C239.960175,118.409543 237.523197,119.941896 237.523197,119.941896 L245.748599,119.941896 C245.748599,119.941896 248.337758,118.256446 250.622554,118.868833 C252.90735,119.481913 253.516766,121.474249 253.516766,123.465893 C253.516766,125.458229 254.734911,125.458229 255.496509,125.611326 C256.258108,125.765116 256.867524,127.450566 258.390721,127.143679 C259.913918,126.837486 259.609554,125.765116 261.89435,125.458229 C264.178457,125.151343 265.854524,126.990583 266.615434,128.982919 C267.377721,130.974563 273.927744,143.539583 273.927744,143.539583 L307.285209,210.809339 C307.285209,210.809339 312.159164,211.422419 313.834543,213.874046 C315.509922,216.325672 318.099081,217.704929 319.775149,216.631866 C321.450528,215.559496 322.669361,213.414063 322.669361,213.414063 L319.165733,209.123889 L320.993294,208.357712 L321.450528,202.994476 C321.450528,202.994476 327.999862,206.582898 329.523059,207.240314 C331.046945,207.897729 333.483923,207.240314 333.483923,207.240314 L333.483923,197.018159 L339.728204,190.888746 L339.728204,180.424131 L337.139045,179.396096 L337.291227,170.048879 L339.728204,169.742686 C339.728204,169.742686 338.662242,168.210333 338.662242,167.444156 C338.662242,166.677979 338.814424,165.145626 338.814424,165.145626 C338.814424,165.145626 341.404272,163.766369 341.251401,162.540902 C341.099219,161.314743 340.337621,161.008549 340.185439,158.863116 C340.033257,156.717683 340.807939,155.185329 341.258287,154.57225 C341.708636,153.959862 347.496371,153.499879 347.496371,153.499879 C347.496371,153.499879 345.212264,151.201349 345.212264,149.668996 C345.212264,148.136643 345.059394,143.386486 347.496371,142.926503 C349.933349,142.467213 351,142.007229 351,142.007229 L351,135.877816 C351,135.877816 342.470923,136.337799 336.986863,131.740739 C331.503491,127.143679 330.58971,127.143679 327.390446,120.401186 C324.192558,113.659386 321.298346,112.892516 320.383877,113.046306 C319.470097,113.199403 315.814974,115.957916 314.596141,116.417206 C313.377997,116.877189 308.046119,116.417206 308.046119,116.417206 L291.748186,91.1340693 C291.748186,91.1340693 289.767754,91.1340693 288.54961,91.9002459 C287.330777,92.6664226 283.771371,89.1417329 283.771371,89.1417329 L283.675654,80.2544993 C283.675654,80.2544993 279.71548,78.722146 279.562609,77.8021798 C279.410427,76.8829064 281.238677,74.8912627 280.781442,73.665103 C280.324896,72.4389432 277.125632,69.2211398 275.450253,69.068043 C273.774874,68.9149462 271.947313,69.068043 270.575609,69.068043 C269.205283,69.068043 268.138631,70.141106 266.158888,70.9072826 C264.178457,71.6734593 251.993569,73.665103 251.993569,73.665103" id="path-4"></path>
        <path id="CN-44" title="广东省" class="land"  d="M178.679955,197.112938 C178.679955,197.112938 177.150056,207.197329 178.679955,209.489268 C180.209853,211.781207 178.833498,213.461823 178.679955,214.837125 C178.527103,216.211735 177.051153,221.712941 179.395106,223.546215 C181.739752,225.37949 183.881748,225.685496 185.564498,226.143469 C187.247247,226.602133 189.389244,229.199387 190.001341,230.880004 C190.613439,232.561312 291.279646,279.774694 292.656001,276.871434 C294.033048,273.968174 293.880196,269.995618 293.880196,268.162344 C293.880196,266.328378 293.498413,263.168156 295.831301,262.532657 C298.164188,261.89785 306.272235,264.823214 309.484883,263.589519 C312.698223,262.355823 318.357879,260.369891 317.899324,258.23061 C317.899324,258.23061 315.145922,257.305683 315.298082,255.017889 C315.451625,252.730095 313.921727,236.815006 314.533824,237.056772 C315.145922,237.297847 317.951889,237.578986 317.925606,237.056772 C317.899324,236.533867 318.105432,233.325291 317.925606,232.866627 C317.745781,232.408654 316.215883,232.102648 316.215883,232.102648 L315.604477,227.977435 L311.168325,223.2409 C311.168325,223.2409 310.86193,211.169885 310.096981,207.80796 C309.332032,204.446727 305.96584,198.029575 305.812989,197.112938 C305.660137,196.19561 305.660137,183.666622 305.507286,183.208648 C305.353743,182.749984 302.447489,169.609674 295.257243,161.053242 C288.066306,152.496809 284.242252,138.134547 281.335306,137.064561 C278.428361,135.995266 263.588623,148.524254 258.693225,151.274856 C253.797135,154.024768 234.826949,164.261818 229.625156,168.387722 C224.424055,172.512935 215.856071,176.791497 210.348575,179.388751 C204.841079,181.986005 192.907595,189.778458 189.236392,191.612423 C185.564498,193.445698 178.679955,197.112938 178.679955,197.112938" id="path-5"></path>
        <path id="CN-44" title="广东省" class="land"  d="M41,207.14782 C41,207.14782 48.1446306,215.659631 48.6016505,219.816011 C49.057296,223.973088 87.5177578,241.061436 92.3820994,237.5203 C97.2471282,233.97986 95.5743665,229.206843 96.182581,227.667339 C96.7907955,226.127836 96.182581,223.819277 94.5098193,224.28071 C92.8384321,224.74284 86.9095433,226.409011 87.365876,222.574172 C87.8215214,218.738637 88.2778541,216.730741 89.3417141,215.963773 C90.4062613,215.197501 114.728656,219.04626 116.704495,219.508389 C118.68102,219.969822 122.025169,221.356211 123.089716,221.047892 L124.153576,220.74027 C124.153576,220.74027 123.545362,218.64468 124.153576,217.998813 C124.761791,217.352945 127.650294,217.500492 127.802176,215.963773 C127.954058,214.42775 127.954058,205.960481 129.170487,205.190729 C130.386228,204.421674 132.819087,205.036918 134.643043,205.960481 C136.466999,206.88474 140.419363,204.113355 139.963717,203.189793 C139.507384,202.26623 137.683428,199.033412 136.011354,197.955342 C134.338592,196.877968 132.362754,195.184653 132.210872,194.106584 C132.05899,193.02921 127.802176,188.103077 127.193961,188.410699 C126.585747,188.719018 123.697931,193.183021 122.937834,193.336832 C122.177738,193.490643 121.417642,190.412332 121.721405,189.180451 C122.025169,187.949266 123.849812,186.409763 122.633383,186.101444 C121.417642,185.793822 112.448368,181.636745 111.992722,177.480365 C111.536389,173.323984 109.868438,165.780278 109.029996,165.318149 C108.19224,164.856716 102.263352,165.93409 102.263352,165.318149 C102.263352,164.702904 100.287514,157.775139 98.0065373,158.544891 C95.7269356,159.313947 92.9896266,161.007957 92.3820994,160.238206 C91.7738849,159.468454 89.0372632,154.849944 88.2778541,155.003755 C87.5177578,155.157566 84.1729216,159.468454 84.021727,161.470087 C83.869158,163.471023 80.6762036,163.624835 81.2844181,163.779342 C81.8926326,163.933153 85.2374688,165.472656 85.2374688,166.857652 C85.2374688,168.243345 85.2374688,170.706411 83.869158,171.783785 C82.5008471,172.861855 81.7407508,172.861855 79.7642254,172.399725 C77.7883873,171.938292 76.2681947,171.938292 73.9879057,172.861855 C71.708304,173.785418 69.7317786,173.477795 68.6672314,173.323984 C67.6033715,173.170173 66.2350606,170.398789 65.1712007,169.166907 C64.1066534,167.935722 62.434579,166.396219 60.9150736,166.396219 C59.3948809,166.396219 58.7859792,165.626467 58.7859792,164.702904 C58.7859792,163.779342 58.0258828,162.701272 57.4183556,163.163401 C56.8101411,163.624835 55.4418302,165.164338 54.2254012,167.319782 C53.0096594,169.475226 52.554014,171.014729 50.8812523,171.014729 C49.2091778,171.014729 45.2561271,170.09047 45.2561271,170.09047 C45.2561271,170.09047 48.2971996,175.479428 48.6016505,177.942494 C48.9054142,180.40556 49.8173923,187.949266 48.6016505,190.873766 C47.3845342,193.798961 47.0807706,197.186286 46.9288888,199.033412 C46.7763197,200.880538 46.6251252,200.880538 45.8643416,203.497415 C45.1049325,206.114988 46.9288888,205.652859 45.1049325,206.114988 C43.280289,206.576422 41,207.14782 41,207.14782" id="path-6"></path>
        <path id="CN-44" title="广东省" class="land"  d="M2.59206879,241.777064 C2.82045096,242.464088 6.92926624,249.10785 9.43940637,249.10785 C11.9502344,249.10785 15.8299796,256.210088 17.4279669,256.668564 C19.0259541,257.12635 21.3077121,256.668564 21.3077121,256.668564 C21.3077121,256.668564 22.448935,260.104374 22.448935,261.479112 C22.448935,262.85385 20.8516357,264.687064 20.8516357,266.519588 C20.8516357,268.352112 22.2205529,268.810588 21.0800178,270.185326 C19.9387949,271.559374 18.3414955,273.16335 16.5144382,273.16335 L9.43940637,273.16335 C9.43940637,273.16335 10.5806293,277.058326 9.2110242,278.432374 C7.84210701,279.807112 2.82045096,279.807112 0.766387261,279.349326 C-1.28836433,278.89085 1.22315159,285.839802 3.2008586,287.21454 C5.1792535,288.589279 4.41775032,292.866088 4.26641274,294.698612 C4.11369936,296.531136 4.11369936,297.142207 3.65762293,298.211064 C3.2008586,299.280612 5.33059108,298.36435 5.48330446,299.280612 C5.63532994,300.196874 5.63532994,303.862612 5.1792535,304.167802 C4.72248917,304.473683 2.28801783,304.015207 2.44004331,305.084755 C2.59206879,306.153612 5.63532994,306.772969 6.39614522,307.685088 C7.15696051,308.597207 7.30898599,311.345993 6.5481707,312.41554 C5.78804331,313.484398 3.96167389,315.622802 4.57046369,316.081279 C5.1792535,316.539064 7.15696051,317.761207 7.15696051,319.593731 C7.15696051,321.426255 4.57046369,321.732136 4.41775032,323.106874 C4.26641274,324.480921 4.11369936,330.590255 4.11369936,330.590255 C4.11369936,330.590255 8.98264204,329.827279 9.59143185,330.590255 C10.2002217,331.353921 14.1570115,332.117588 14.7651134,331.507207 C15.3739032,330.896136 19.6340561,327.536279 21.0036611,326.925207 C22.3732662,326.314136 68.477572,327.536279 76.6952025,325.091993 C84.9114573,322.648398 108.923228,280.159255 107.887941,275.606945 C106.851967,271.055326 104.84468,269.039826 103.627101,268.27616 C102.409521,267.511802 101.49668,265.831874 103.171024,264.763017 C104.84468,263.69416 108.409368,261.250564 107.920273,258.195898 C107.431177,255.14054 106.823075,253.155421 104.84468,253.002826 C102.866973,252.850231 97.0845019,251.475493 96.9324764,248.573421 C96.780451,245.67204 98.1493682,238.187969 98.3020815,235.896969 C98.4534191,233.605969 99.5189732,232.383826 98.4534191,231.772755 C97.3892408,231.161683 94.9547694,230.092826 93.8892153,229.787636 C92.8236611,229.481755 90.084451,229.32916 87.498642,228.871374 C84.9114573,228.412898 84.3026675,228.260302 82.6296994,228.871374 C80.9553554,229.481755 77.151279,230.856493 75.9336994,230.856493 C74.7168076,230.856493 75.0208586,228.98185 74.5647822,228.468136 C74.1080178,227.954421 69.9998904,227.190755 69.3904127,225.664112 C68.7823108,224.136779 65.7390497,219.096302 65.7390497,219.096302 C65.7390497,219.096302 63.7613427,222.45685 61.4788968,223.525707 C59.196451,224.594564 55.848451,225.510826 55.2396611,224.900445 C54.6308713,224.289374 52.5011389,216.500112 51.5882981,216.346826 C50.6747694,216.194231 46.1105656,215.736445 44.4362217,216.346826 C42.7625656,216.957898 41.2416229,218.086826 40.1760688,218.057136 C39.1112025,218.027445 37.589572,218.18004 37.589572,218.790421 C37.589572,219.401493 38.0456484,221.234707 37.285521,221.845779 C36.5240178,222.45685 31.0462854,221.693183 30.4374955,222.150969 C29.8293936,222.609445 29.2206038,223.525707 28.611814,223.373112 C28.0030242,223.220517 26.3293682,223.220517 25.8732917,223.525707 C25.4165274,223.830898 23.4388204,223.983493 22.6773172,223.525707 C21.9165019,223.067231 15.982693,222.45685 14.308349,222.609445 C12.6353809,222.76204 10.5042726,224.289374 9.59143185,225.205636 C8.67859108,226.121898 7.00493503,226.427779 7.46101146,227.190755 C7.9177758,227.954421 10.9610369,230.245421 10.3522471,230.856493 C9.74345732,231.467564 7.76575032,231.314969 8.06980127,232.231231 C8.37385223,233.147493 10.9610369,234.980707 10.2002217,235.896969 C9.43940637,236.813231 8.83061656,238.340564 6.39614522,239.104231 C3.96167389,239.867898 2.59206879,241.777064 2.59206879,241.777064" id="path-7"></path>
        <path id="CN-44" title="广东省" class="land"  d="M211.151418,359.249493 L221.119419,372.394188 L233.910539,372.394188 C233.910539,372.394188 239.39225,375.147301 240.45789,374.993813 C241.524218,374.841016 242.13345,372.087903 245.178922,371.629512 C248.224394,371.170429 256.903714,370.100158 261.776194,369.793873 C266.648673,369.488279 269.389874,369.641076 269.694145,369.029888 C269.998417,368.418008 272.740306,364.747422 270.455513,363.524354 C268.171409,362.300595 268.780642,363.677151 268.171409,362.300595 C267.562177,360.924038 268.171409,359.562693 268.019274,359.249493 C267.867138,358.935602 266.496538,357.865332 265.887994,356.488775 C265.278762,355.11291 268.171409,352.81888 266.801498,351.595121 C265.430898,350.372053 261.929018,349.912971 264.060298,347.312655 C266.192266,344.713031 270.303377,343.948354 273.044578,343.336475 C275.785778,342.725286 277.459961,341.96061 277.612786,340.278459 C277.764921,338.595617 280.353297,335.384114 281.418937,334.925031 C282.485265,334.46664 279.744754,331.407933 280.353297,330.490459 C280.962529,329.572986 283.398769,326.361482 285.225777,325.902399 C287.053473,325.443317 285.074329,322.537407 285.225777,322.079016 C285.378601,321.619933 286.292105,318.102835 287.053473,316.879076 C287.814841,315.656008 285.378601,311.831934 285.378601,310.91446 C285.378601,309.996986 291.012449,303.726776 291.012449,302.656505 C291.012449,301.585543 288.880481,301.432746 288.880481,300.668069 L288.880481,293.327588 C288.880481,293.327588 286.597065,293.785979 286.139969,293.327588 C285.683562,292.868505 284.769369,289.657001 286.444241,288.739527 C288.119801,287.821362 292.992281,286.598294 292.687321,285.528024 C292.383049,284.457062 291.012449,280.633678 291.621681,280.480881 C292.230225,280.328084 294.666465,280.633678 295.428521,279.869001 C296.189889,279.105016 296.494849,275.128144 294.362193,274.82255 C292.230225,274.516265 290.251081,274.669753 288.271249,272.375723 C286.292105,270.081693 283.246633,267.045111 282.485265,263.057868 C281.723897,259.069934 201.172404,267.175783 199.192572,273.751588 C197.212739,280.328084 211.151418,359.249493 211.151418,359.249493" id="path-8"></path>
        <path id="CN-44" title="广东省" class="land"  d="M90.6976428,359.074064 C90.6976428,359.074064 85.1697643,363.426562 83.5580448,364.801217 C81.9463253,366.175872 79.1823861,370.757594 80.3332176,371.673801 C81.4854374,372.590007 85.379385,375.797075 85.379385,375.797075 C85.379385,375.797075 82.6369631,376.484747 81.7158814,377.629487 C80.7941056,378.775608 80.9391742,380.837246 80.0611272,381.982676 C79.1823861,383.128107 76.6488908,384.502762 76.6488908,384.502762 C76.6488908,384.502762 69.049099,375.50433 68.1273232,374.96372 C67.2062415,374.42242 62.6008329,378.775608 62.6008329,378.775608 C62.6008329,378.775608 59.6064497,377.400954 56.8432046,377.629487 C54.0792653,377.859402 51.0855762,378.546384 51.0855762,378.546384 L51.0855762,387.251381 C51.0855762,387.251381 46.7092234,390.229915 46.4794736,387.251381 C46.2490296,384.273537 46.4794736,382.2119 46.4794736,382.2119 C46.4794736,382.2119 44.6373101,381.295694 43.4850904,382.898883 C42.3335647,384.502762 38.1883499,390 35.4244107,390 C32.6611656,390 33.5822473,387.022157 33.3518033,386.335174 C33.1220535,385.648192 29.4370325,379.691815 29.6667824,378.31716 C29.8972263,376.942505 33.3518033,374.782136 33.3518033,372.998744 C33.3518033,371.215352 32.2009718,367.092078 32.4307216,364.342768 C32.6611656,361.594149 30.5878641,361.364925 30.5878641,359.074064 C30.5878641,356.783203 29.8764031,353.346911 29.6570648,351.972256 C29.4370325,350.598292 25.5222617,344.41269 25.5222617,344.41269 C25.5222617,344.41269 28.0550629,339.601743 27.594175,337.310882 C27.1339812,335.020711 25.7520115,328.377352 23.4489602,328.491274 C21.1459089,328.605886 17,328.491274 17,328.491274 C17,328.491274 20.2248272,327.460455 19.5341894,324.024163 C19.5341894,324.024163 22.0669906,324.711145 22.0669906,322.420975 C22.0669906,320.130113 22.9880723,318.785147 24.8302357,318.541424 C26.6730933,318.29701 34.0431352,314.632184 35.8852986,314.860718 C37.7281561,315.089942 37.0368243,310.737444 37.9586001,309.592014 C38.8796818,308.446583 42.1031207,306.61417 44.1764222,307.071928 C46.2490296,307.530377 49.0122748,313.486754 52.4668518,314.173736 C55.9214288,314.860718 55.6909848,312.112099 57.7642863,312.112099 C59.8368937,312.112099 60.7579754,316.273347 60.7579754,318.087118 C60.7579754,319.900889 62.6008329,319.709639 64.6734403,318.087118 C66.7460477,316.464597 71.1217064,315.089942 74.3458395,316.693821 C77.5699725,318.29701 93,320.817096 93,320.817096 L90.6976428,359.074064 Z" id="path-9"></path>
        <path id="CN-44" title="广东省" class="land"  d="M149.000518,227.968936 C149.000518,227.968936 145.791602,237.045019 145.639652,240.121611 C145.48632,243.197506 143.347273,261.195982 143.347273,263.503425 C143.347273,265.810869 139.527792,282.577734 139.527792,282.577734 L138,292.269275 C138,292.269275 210.416797,295.192176 211.333334,289.346374 C212.250562,283.501268 212.250562,283.346882 216.222684,283.346882 C220.194805,283.346882 224.472209,280.885748 225.542078,279.501143 C226.611256,278.116538 229.972123,278.731995 231.653247,279.654834 C233.33368,280.578367 235.166754,280.732058 237.153161,279.96291 C239.139567,279.193762 240.361386,280.424677 240.667359,282.116663 C240.972641,283.808649 242.653074,285.962402 244.028225,286.269783 C245.402686,286.577164 255.94459,286.577164 257.472382,286.423473 C259.000174,286.269783 259.764071,285.193254 261.597145,285.193254 C263.43091,285.193254 263.736192,286.269783 264.500779,286.116092 C265.263984,285.962402 266.333853,281.654896 268.4729,279.80922 C270.611257,277.962848 273.055586,277.809157 273.055586,277.809157 L273.055586,272.578813 C273.055586,272.578813 282.222339,268.425693 282.986235,266.425631 C283.750822,264.426264 284.361387,259.811377 283.750822,259.19592 C283.139567,258.581158 277.792295,257.503933 277.18104,255.0428 C276.569785,252.581666 276.264502,248.582236 276.264502,248.582236 C276.264502,248.582236 272.750304,247.966779 272.445022,249.043308 C272.139049,250.120532 272.750304,251.350751 270,251.350751 L267.25039,251.350751 C267.25039,251.350751 265.875239,245.505645 264.347447,245.043878 C262.819655,244.582807 255.486667,244.582807 253.805543,244.582807 C252.1258,244.582807 248.611602,241.044449 248.458961,238.121548 C248.305629,235.198647 251.667186,235.506724 251.055931,233.814738 C250.444676,232.122752 248.305629,232.430133 248.153679,231.660985 C248.000347,230.891837 248.153679,227.968936 246.625196,227.968936 C245.097404,227.968936 242.347101,228.122627 241.278614,227.353479 C240.208745,226.584331 239.139567,218.739163 238.528312,218.431782 C237.917057,218.123705 235.472037,223.662126 235.472037,224.738655 C235.472037,225.815183 232.569784,222.584902 231.499915,222.431211 C230.430737,222.277521 229.361558,223.50774 229.361558,224.431274 C229.361558,225.354112 227.375843,227.968936 227.222511,227.815246 C227.06987,227.661555 225.083464,224.584964 223.861645,224.123197 C222.639135,223.662126 225.310699,220.123768 224.738813,219.20093 C224.166927,218.277396 221.875239,217.483908 220.652729,218.419264 C219.430909,219.35462 217.139221,223.046668 215.306147,223.200359 C213.473072,223.354049 212.556535,220.585535 212.09723,224.738655 C211.638617,228.891774 213.167099,231.199218 211.791948,232.737513 C210.416797,234.275809 207.819827,235.814105 205.986752,235.660414 C204.153678,235.506724 201.250044,233.506661 200.333507,232.737513 C199.41697,231.968366 197.736536,234.737576 196.819309,234.737576 C195.902771,234.737576 196.667358,231.968366 195.902771,231.045527 C195.139566,230.122689 187.347964,226.12326 187.194632,226.892407 C187.041991,227.661555 187.041991,231.199218 186.888659,231.814675 C186.736709,232.430133 180.778181,235.353033 178.027879,236.275872 C175.278268,237.19871 173.597144,237.660477 171.764069,236.736943 C169.930995,235.814105 163.819826,231.968366 161.375497,231.968366 L151.75013,231.968366 L149.000518,227.968936 Z" id="path-10"></path>
        <path id="CN-44" title="广东省" class="land"  d="M71,301.995546 C71,301.995546 76.9778355,303.525242 77.5910712,311.479384 C78.203614,319.434216 78.5105783,320.199064 78.663714,320.963912 C78.8168497,321.72876 81.8823353,322.646439 84.6415495,323.104933 C87.4000708,323.564118 90.1585921,326.012185 90.1585921,327.235527 C90.1585921,328.45956 87.0937994,328.765222 83.5689067,330.600581 C80.0433211,332.436631 73.7585213,337.33138 74.2193142,337.943397 C74.6787213,338.555414 80.8089996,343.755826 81.2690996,346.815218 C81.7285067,349.874609 83.7213495,360.582479 85.5610566,362.112175 C87.4000708,363.641871 89.239085,362.418529 90.1585921,362.112175 C91.0787921,361.806513 92.1514349,363.029854 92.3045706,363.641871 C92.4583992,364.253888 94.9106491,361.500159 96.1364276,361.347327 C97.362899,361.194496 104.719649,365.783583 107.631999,366.548431 C110.544348,367.313279 116.062084,367.924604 116.67532,370.066317 C117.288555,372.208029 118.208063,372.208029 120.200905,370.831164 C122.193055,369.4543 123.725798,368.995806 125.718641,370.371979 C127.710791,371.748844 129.550498,373.584893 129.703634,372.820046 C129.856769,372.055198 129.090398,368.230958 129.703634,367.924604 C130.316869,367.618942 131.542648,366.089246 133.381662,366.089246 C135.221369,366.089246 136.907247,366.854094 137.366655,361.347327 C137.826755,355.840561 137.366655,351.251474 137.366655,351.251474 C137.366655,351.251474 142.424983,349.874609 144.570962,355.993392 C146.716247,362.112175 146.409976,361.653681 148.862226,360.276125 C151.314475,358.899952 152.694083,357.82875 154.074383,359.205615 C155.453297,360.582479 156.679075,359.970463 158.518782,357.981582 C160.357797,355.993392 164.496618,354.463696 165.876225,354.922882 C167.255139,355.381376 168.022204,357.370257 169.094153,357.370257 C170.167489,357.370257 172.619739,352.169153 173.84621,350.486626 C175.071989,348.804099 179.21081,347.732897 180.743553,349.415424 C182.276296,351.098642 182.735703,357.523088 187.026967,359.052784 C191.319617,360.582479 198.982638,359.511277 200.361552,359.205615 C201.741852,358.899952 207.412723,354.616528 207.412723,354.616528 L214.003795,363.794702 C214.003795,363.794702 212.471052,356.75824 212.317223,355.840561 C212.164087,354.922882 212.010952,348.650576 212.777323,348.039251 C213.543695,347.427234 215.382709,347.12088 215.229573,342.073299 C215.076437,337.025026 216.302216,331.977445 216.302216,329.988564 L216.302216,326.62351 C216.302216,326.62351 221.819951,326.470679 223.96593,327.388358 C226.112601,328.306037 224.579859,324.940983 222.433187,323.258456 C220.287209,321.575237 221.206716,319.89271 219.980937,319.587048 C218.754466,319.281385 214.15693,313.773927 214.15693,311.632906 C214.15693,309.491194 218.448194,310.408873 218.602023,309.338363 C218.754466,308.267161 214.463202,303.372411 214.463202,301.995546 C214.463202,300.618682 216.149773,290.52352 215.382709,288.228284 C214.61703,285.933741 213.390559,282.568687 212.471052,282.263024 C211.550852,281.95667 199.595874,282.263024 199.595874,282.263024 C199.595874,282.263024 194.078138,280.88616 194.078138,281.345345 C194.078138,281.803839 194.231274,285.168893 194.231274,285.168893 C194.231274,285.168893 191.47206,285.628078 191.779024,286.545757 C192.085295,287.463437 187.794031,280.733328 185.494224,279.968481 C183.195803,279.203633 171.240132,279.050801 167.715239,279.968481 C164.189654,280.88616 162.350639,280.733328 160.664068,282.263024 C158.978882,283.79272 158.365647,285.016062 157.292311,284.86323 C156.219668,284.710399 155.300161,283.333535 153.767418,283.486366 C152.233983,283.639889 149.16919,284.710399 147.023211,285.168893 C144.877233,285.628078 143.957726,286.852111 142.118712,286.698589 C140.279004,286.545757 139.206362,286.240095 139.206362,286.240095 C139.206362,286.240095 141.35234,283.945551 141.505476,281.803839 C141.659305,279.662818 142.731947,268.037268 142.731947,267.272421 C142.731947,266.506881 137.366655,265.283539 135.833912,264.671523 C134.301169,264.059506 132.462155,262.52981 131.236376,263.141827 C130.009905,263.753844 129.244226,264.977185 127.863926,265.130017 C126.484319,265.283539 125.105405,266.966066 126.024912,268.648594 C126.944419,270.331121 129.396669,272.320002 129.090398,273.849697 C128.784126,275.379393 127.097555,276.755566 125.258541,276.602735 C123.418834,276.449904 121.273548,271.860816 120.047077,271.095968 C118.821298,270.331121 112.843463,271.249491 111.923956,270.178289 C111.003756,269.107779 110.391213,268.037268 108.551506,269.26061 C106.712491,270.484643 105.946813,270.943137 104.413377,270.790306 C102.880634,270.637475 99.2019132,270.637475 99.5088775,272.320002 C99.8151489,274.002529 102.880634,275.379393 102.727499,276.755566 C102.57367,278.132431 102.727499,281.038991 101.50172,281.038991 C100.275249,281.038991 98.7425061,278.744447 97.5167276,278.89797 C96.2902562,279.050801 95.3707491,279.356464 94.9106491,282.110193 C94.451242,284.86323 94.1442777,286.545757 92.9178063,287.769791 C91.6913349,288.993132 90.6186921,289.145964 89.239085,288.534639 C87.8601708,287.922622 84.4884138,285.933741 82.955671,286.392926 C81.4222353,286.852111 81.2690996,288.534639 81.8823353,289.452318 C82.495571,290.369997 84.9478209,290.829182 83.7213495,292.053215 C82.495571,293.276557 80.5027282,295.111915 78.8168497,296.335949 C77.1309712,297.55929 74.5255856,299.39534 73.2991142,299.701003 C72.0733357,300.007357 71,301.995546 71,301.995546" id="path-11"></path>
    </defs>
    <g id="页面-1" stroke="none" stroke-width="1" fill="none" fill-rule="evenodd">
        <g id="homepage1.0备份-4" transform="translate(0.000000, -53.000000)">
            <g id="编组" filter="url(#filter-1)" transform="translate(0.000000, 53.000000)">
                <g id="Fill-3">
                    <use fill="#E47C03" xlink:href="#path-2"></use>
                    <use stroke="#FFFFFF" stroke-width="1" fill="#E4DFFF" xlink:href="#path-2"></use>
                </g>
                <g id="Fill-5">
                    <use fill="#569FB2" xlink:href="#path-3"></use>
                    <use stroke="#FFFFFF" stroke-width="1" fill="#E4DFFF" xlink:href="#path-3"></use>
                </g>
                <g id="Fill-7">
                    <use fill="#F09EBF" xlink:href="#path-4"></use>
                    <use stroke="#FFFFFF" stroke-width="1" fill="#E4DFFF" xlink:href="#path-4"></use>
                </g>
                <g id="Fill-9">
                    <use fill="#FCD000" xlink:href="#path-5"></use>
                    <use stroke="#FFFFFF" stroke-width="1" fill="#E4DFFF" xlink:href="#path-5"></use>
                </g>
                <g id="Fill-11">
                    <use fill="#23AE3B" xlink:href="#path-6"></use>
                    <use stroke="#FFFFFF" stroke-width="1" fill="#E4DFFF" xlink:href="#path-6"></use>
                </g>
                <g id="Fill-13">
                    <use fill="#C368A1" xlink:href="#path-7"></use>
                    <use stroke="#FFFFFF" stroke-width="1" fill="#E4DFFF" xlink:href="#path-7"></use>
                </g>
                <g id="Fill-15">
                    <use fill="#8BC58B" xlink:href="#path-8"></use>
                    <use stroke="#FFFFFF" stroke-width="1" fill="#E4DFFF" xlink:href="#path-8"></use>
                </g>
                <g id="Fill-17">
                    <use fill="#F1AC6B" xlink:href="#path-9"></use>
                    <use stroke="#FFFFFF" stroke-width="1" fill="#E4DFFF" xlink:href="#path-9"></use>
                </g>
                <g id="Fill-19">
                    <use fill="#FAF19A" xlink:href="#path-10"></use>
                    <use stroke="#FFFFFF" stroke-width="1" fill="#E4DFFF" xlink:href="#path-10"></use>
                </g>
                <g id="Fill-21">
                    <use fill="#00A095" xlink:href="#path-11"></use>
                    <use stroke="#FFFFFF" stroke-width="1" fill="#E4DFFF" xlink:href="#path-11"></use>
                </g>
                <path d="M238.079838,10.0024132 C240.142542,9.88758603 240.256485,13.9044619 242.547764,14.8223875 C244.839043,15.7403132 246.787114,15.0520418 247.588855,16.5441034 C248.390595,18.0354731 246.672481,19.757189 249.192336,19.1830531 C251.712881,18.609609 260.304834,16.1996218 261.794372,16.1996218 C263.283221,16.1996218 266.835463,17.0027203 267.064039,21.1337316 C267.293305,25.2654346 269.126052,34.6750371 269.584584,34.7898643 C270.043116,34.9046915 270.844857,35.3640002 270.730224,36.9701971 C270.616281,38.5770858 271.532655,60.7255871 271.418022,63.5941912 C271.36414,64.9425544 271.107795,67.1278157 270.851223,69.0653151 L270.575609,69.068043 L270.575609,69.068043 C269.205283,69.068043 268.138631,70.141106 266.158888,70.9072826 C264.178457,71.6734593 251.993569,73.665103 251.993569,73.665103 C251.993569,73.665103 252.450115,82.8592228 251.993569,84.2384794 C251.536334,85.6170432 250.045502,86.230123 247.744868,85.3108496 C245.443546,84.3915761 243.768167,84.0853826 243.615985,84.5446729 C243.463115,85.004656 244.225402,88.528653 243.615985,89.4479264 C243.006569,90.3678926 240.265227,90.5209894 240.112357,94.1987759 C239.960175,97.8758697 239.655811,100.327496 237.979743,102.013639 C236.305053,103.699089 236,104.465266 236,104.465266 C236,104.465266 240.569591,112.433226 241.179008,113.812483 C241.788424,115.191739 242.702205,115.65103 241.33119,117.030286 C239.960175,118.409543 237.523197,119.941896 237.523197,119.941896 L245.748599,119.941896 C245.748599,119.941896 248.337758,118.256446 250.622554,118.868833 C252.90735,119.481913 253.516766,121.474249 253.516766,123.465893 C253.516766,125.458229 254.734911,125.458229 255.496509,125.611326 C256.258108,125.765116 256.867524,127.450566 258.390721,127.143679 C259.913918,126.837486 259.609554,125.765116 261.89435,125.458229 C264.178457,125.151343 265.854524,126.990583 266.615434,128.982919 C267.175609,130.4465 270.86128,137.619921 272.776332,141.320942 C267.559645,144.919015 261.496273,149.699894 258.693225,151.274856 C253.797135,154.024768 234.826949,164.261818 229.625156,168.387722 C224.424055,172.512935 215.856071,176.791497 210.348575,179.388751 C204.841079,181.986005 192.907595,189.778458 189.236392,191.612423 C186.153038,193.151856 180.804363,195.984465 179.168979,196.852951 C176.629157,194.669092 173.476544,191.656738 173.476544,191.656738 L173.476544,191.656738 L173.476544,187.975267 C172.561104,188.281825 170.272157,187.361457 169.509865,187.054206 C168.746193,186.747648 169.05111,180.917496 169.05111,180.917496 C169.96724,180.917496 172.561104,176.008406 172.256187,173.70714 C171.95127,171.405873 168.899341,166.036253 166.152329,165.729694 C163.405317,165.422443 162.947942,164.809327 162.489876,163.12187 C162.032501,161.43372 163.710234,158.518644 162.489876,156.371351 C161.268829,154.223364 160.353388,152.228656 160.353388,152.228656 C159.285489,154.070085 156.539167,154.837174 154.24953,151.308288 C152.815829,149.097941 154.615021,145.623939 156.159683,143.336457 C157.764887,142.291541 159.296288,141.04652 159.069373,140.213659 C158.611531,138.53068 154.640119,136.081956 152.806681,134.55185 C150.973933,133.021743 150.668015,132.103817 149.140496,132.25669 C147.612976,132.409562 142.114734,132.409562 142.573266,130.420838 C143.031108,128.431423 145.933533,128.125678 145.627615,126.748444 C145.322387,125.37121 144.100786,120.169401 145.169083,119.250783 C146.238761,118.332858 147.456219,116.649879 150.818557,117.567804 C154.181586,118.486422 158.458917,119.250783 160.596892,118.027113 C162.735558,116.802751 165.026837,115.426208 167.624035,115.273336 C170.220542,115.119772 172.09196,117.185278 174.039341,113.398748 C175.986721,109.611526 178.049425,109.152218 179.42364,107.431194 C180.798546,105.709478 185.838946,99.5129607 186.869952,95.8405664 C187.900959,92.1688638 190.880037,85.1685567 190.192929,84.709248 C189.505821,84.2499394 187.443118,84.709248 186.75601,84.2499394 C186.068212,83.7913224 184.006199,76.4472255 183.66299,75.8730896 C183.319091,75.2989538 183.548357,74.3810281 181.600286,74.3810281 C179.652906,74.3810281 178.553534,73.807584 178.553534,73.807584 L178.553534,70.4796712 C178.553534,70.4796712 175.413556,69.3313995 175.528189,67.3814127 C175.642822,65.4300425 175.872088,62.6755739 177.018418,60.7255871 C178.164058,58.7742169 176.674519,54.9876872 175.986721,53.3807985 C175.299613,51.7739098 173.352233,47.6428986 173.695442,46.150837 C174.039341,44.6594673 175.872088,44.2001586 179.42364,45.0032571 C182.975192,45.8070473 190.765404,46.150837 192.598151,46.6101457 C194.430898,47.0687627 207.491467,51.0856385 208.523164,52.0035642 C209.55417,52.9214898 218.83323,40.0691473 220.895934,37.0850243 C222.957947,34.101593 231.893108,19.6423618 232.810172,17.5768562 C233.726546,15.5106588 236.017825,10.1172404 238.079838,10.0024132 Z" id="形状结合" stroke="#FFFFFF" fill="#E4DFFF"></path>
            </g>
        </g>
    </g>
</svg>